<?xml version="1.0" encoding="utf-8"?>
<!-- Svg Vector Icons : http://www.onlinewebfonts.com/icon -->
<!DOCTYPE svg PUBLIC "-//W3C//DTD SVG 1.1//EN" "http://www.w3.org/Graphics/SVG/1.1/DTD/svg11.dtd">
<svg version="1.1" xmlns="http://www.w3.org/2000/svg" xmlns:xlink="http://www.w3.org/1999/xlink" x="0px" y="0px" viewBox="0 0 1000 1000" enable-background="new 0 0 1000 1000" xml:space="preserve">
<metadata> Svg Vector Icons : http://www.onlinewebfonts.com/icon </metadata>
<g><g transform="translate(0.000000,511.000000) scale(0.100000,-0.100000)"><path d="M7392.1,4990.5c-103.5-36.7-144.5-71.2-181.2-155.3c-34.5-86.3-36.7-187.7-2.1-250.2c12.9-25.9,172.6-192,351.6-371c524.2-517.7,834.8-947,1143.3-1574.7c274-556.5,446.5-1106.6,541.4-1725.7c56.1-362.4,56.1-1251.1,2.2-1607.1c-161.8-1046.2-571.6-1993.1-1214.5-2804.2c-79.8-101.4-293.4-330-472.4-509.1c-181.2-176.9-338.7-345.1-353.8-368.9c-58.2-112.2,0-304.1,114.3-375.3c88.4-53.9,241.6-53.9,330,2.1c105.7,64.7,552.2,502.6,744.2,733.4c830.5,987.9,1324.5,2131.2,1473.3,3408.2c43.1,353.8,41,1074.2,0,1432.3C9693.7,2309.2,9035.8,3644.5,7968,4675.5C7629.4,5003.4,7551.7,5046.6,7392.1,4990.5z"/><path d="M6524.9,4062.9c-86.3-45.3-135.9-105.7-161.8-202.8c-38.8-142.4-2.1-200.6,295.5-496.1c791.7-780.9,1255.4-1738.6,1365.4-2825.8c92.8-934-127.3-1928.5-608.3-2735.2c-204.9-343-442.2-645-750.7-949.1c-289.1-286.9-336.5-362.4-308.5-478.9c23.7-107.9,92.7-192,183.3-228.6c148.8-58.2,226.5-32.4,442.2,159.6c647.1,573.8,1173.4,1408.6,1449.6,2299.5c291.2,942.7,291.2,2055.7,0,2998.4c-261,841.3-686,1544.5-1315.8,2170C6794.6,4093.1,6686.7,4144.9,6524.9,4062.9z"/><path d="M4264.3,3769.6c-45.3-10.8-112.2-34.5-151-53.9c-38.8-21.6-571.6-429.3-1186.4-906l-1115.2-871.5h-621.2H567l-133.7-66.9c-148.8-75.5-258.9-202.8-304.2-351.6c-38.8-131.6-38.8-2709.3,0-2828c60.4-181.2,181.2-308.5,371-388.3c66.9-25.9,189.8-32.4,696.7-32.4h614.8l1121.7-875.8c616.9-481.1,1169.2-895.2,1225.2-918.9c226.5-103.5,506.9-36.7,683.8,159.6c172.6,194.1,161.8-58.2,161.8,3468.6c0,3526.9,10.8,3274.5-161.8,3468.6C4695.7,3737.2,4458.4,3817,4264.3,3769.6z M4395.9-1429.1l-6.5-1533.7L3317.3-2128l-1074.2,837V104.6v1395.6l1074.2,837l1072.1,837l6.5-1535.8C4398,794.9,4398-585.6,4395.9-1429.1z M1941.1,104.6v-1229.6h-614.8H711.5V104.6v1229.5h614.8h614.8V104.6z"/><path d="M5782.9,2829.1c-94.9-47.5-153.1-144.5-153.1-261c0-127.3,21.6-159.6,230.8-368.9c405.5-403.4,660.1-845.6,796-1380.5c258.8-1018.2-47.4-2079.5-808.9-2817.2c-181.2-176.9-217.9-235.1-217.9-355.9c0-116.5,56.1-209.2,155.3-261c161.8-82,265.3-45.3,494,176.9c595.4,580.2,959.9,1320.1,1054.8,2139.8c36.7,304.2,15.1,819.7-43.1,1098c-151,720.5-489.7,1339.6-1011.7,1848.6C6054.7,2867.9,5942.5,2906.7,5782.9,2829.1z"/></g></g>
</svg>